<svg xmlns="http://www.w3.org/2000/svg" width="40.01" height="39.678">
  <g style="stroke:#fff;stroke-opacity:1" transform="matrix(.03207 0 0 .03174 -30.923 -17.689)">
    <path d="M193.4 13.788c-5.637 8.11-5.39 16.881-5.39 26.384-.001 18.833 1.826 38.076 23.906 42.531 21.857 4.41 47.692.798 69.973.798h193.537c4 0 14.045-1.82 16.46 2.316 2.863 4.902.872 15.259.872 20.793v190.648c0 21.745-3.658 47.224.8 68.526 5.84 27.906 54.296 31.568 72.098 14.482 9.043-8.68 8.705-20.099 8.705-31.735V84.223c0-23.114 8.29-61.032-12.41-77.136-14.141-11.001-40.942-5.911-57.64-5.911H240.005c-16.047 0-36.114-2.483-46.604 12.612zM14.782 193.331c8.127-5.613 16.897-5.34 26.4-5.313 18.833.054 38.07 1.938 42.46 24.031 4.347 21.87.66 47.694.594 69.975l-.414 141.541-.153 51.995c-.011 4-1.86 14.04 2.268 16.467 4.894 2.877 15.257.916 20.79.932l53.44.157 137.208.401c21.744.064 47.234-3.519 68.523 1.002 27.889 5.922 31.41 54.388 14.271 72.14-8.706 9.017-20.124 8.645-31.76 8.611l-50.551-.148-213.756-.626c-23.114-.067-61.056 8.111-77.1-12.636-10.96-14.172-5.791-40.958-5.742-57.655l.427-145.874.347-118.433c.047-16.047-2.378-36.121 12.748-46.567z" style="fill:#fff;fill-opacity:1;stroke:#fff;stroke-opacity:1" transform="translate(1299.773 894.593)"/>
    <ellipse cx="1588.024" cy="1182.358" rx="588.044" ry="589.308" style="fill:none;fill-opacity:1;stroke:#fff;stroke-width:71.4908;stroke-dasharray:none;stroke-opacity:1"/>
  </g>
</svg>
